<svg xmlns="http://www.w3.org/2000/svg" xmlns:xlink="http://www.w3.org/1999/xlink" width="115" zoomAndPan="magnify" viewBox="0 0 86.25 86.249996" height="115" preserveAspectRatio="xMidYMid meet" version="1.0"><defs><clipPath id="c07b338472"><path d="M 0 0 L 85.050781 0 L 85.050781 85.050781 L 0 85.050781 Z M 0 0 " clip-rule="nonzero"/></clipPath><clipPath id="8fc8efd020"><path d="M 22.304688 0 L 62.746094 0 C 75.0625 0 85.050781 9.988281 85.050781 22.304688 L 85.050781 62.746094 C 85.050781 75.0625 75.0625 85.050781 62.746094 85.050781 L 22.304688 85.050781 C 9.988281 85.050781 0 75.0625 0 62.746094 L 0 22.304688 C 0 9.988281 9.988281 0 22.304688 0 Z M 22.304688 0 " clip-rule="nonzero"/></clipPath><clipPath id="d5609833f9"><path d="M 0 0 L 85.050781 0 L 85.050781 85.050781 L 0 85.050781 Z M 0 0 " clip-rule="nonzero"/></clipPath><clipPath id="3ca87934d2"><path d="M 22.304688 0 L 62.746094 0 C 75.0625 0 85.050781 9.988281 85.050781 22.304688 L 85.050781 62.746094 C 85.050781 75.0625 75.0625 85.050781 62.746094 85.050781 L 22.304688 85.050781 C 9.988281 85.050781 0 75.0625 0 62.746094 L 0 22.304688 C 0 9.988281 9.988281 0 22.304688 0 Z M 22.304688 0 " clip-rule="nonzero"/></clipPath><clipPath id="e37e7b8a7a"><rect x="0" width="86" y="0" height="86"/></clipPath><clipPath id="9765495f44"><path d="M 36.824219 72.5625 L 48.214844 72.5625 L 48.214844 74.765625 L 36.824219 74.765625 Z M 36.824219 72.5625 " clip-rule="nonzero"/></clipPath><clipPath id="8aad337820"><path d="M 41 10.078125 L 44 10.078125 L 44 22 L 41 22 Z M 41 10.078125 " clip-rule="nonzero"/></clipPath><clipPath id="ab77dd12b7"><path d="M 62.980469 41.101562 L 74.480469 41.101562 L 74.480469 42.96875 L 62.980469 42.96875 Z M 62.980469 41.101562 " clip-rule="nonzero"/></clipPath><clipPath id="5b13f88147"><path d="M 10.558594 41 L 23 41 L 23 43 L 10.558594 43 Z M 10.558594 41 " clip-rule="nonzero"/></clipPath></defs><g clip-path="url(#c07b338472)"><g clip-path="url(#8fc8efd020)"><g transform="matrix(1, 0, 0, 1, -0, -0.000000000000008663)"><g clip-path="url(#e37e7b8a7a)"><g clip-path="url(#d5609833f9)"><g clip-path="url(#3ca87934d2)"><path fill="#000000" d="M 0 0 L 85.050781 0 L 85.050781 85.050781 L 0 85.050781 Z M 0 0 " fill-opacity="1" fill-rule="nonzero"/></g></g></g></g></g></g><path fill="#ffffff" d="M 42.511719 27.453125 C 39.136719 27.453125 35.957031 28.707031 33.484375 31.03125 C 30.804688 33.554688 29.328125 36.96875 29.328125 40.644531 C 29.328125 43.628906 30.296875 46.445312 32.132812 48.78125 C 34.648438 51.988281 35.980469 55.691406 35.980469 59.496094 L 35.980469 61.820312 C 35.980469 62.207031 36.296875 62.527344 36.6875 62.527344 L 48.371094 62.527344 C 48.726562 62.527344 49.011719 62.238281 49.011719 61.886719 L 49.011719 59.550781 C 49.011719 55.714844 50.351562 51.941406 52.789062 48.925781 C 54.851562 46.371094 55.882812 43.144531 55.691406 39.847656 C 55.304688 33.316406 49.890625 27.882812 43.359375 27.480469 C 43.074219 27.460938 42.792969 27.453125 42.511719 27.453125 Z M 48.371094 64.386719 L 36.6875 64.386719 C 35.269531 64.386719 34.117188 63.234375 34.117188 61.820312 L 34.117188 59.496094 C 34.117188 56.113281 32.925781 52.804688 30.667969 49.929688 C 28.574219 47.261719 27.464844 44.050781 27.464844 40.644531 C 27.464844 36.507812 29.195312 32.511719 32.210938 29.675781 C 35.265625 26.800781 39.265625 25.363281 43.472656 25.621094 C 51.050781 26.089844 57.101562 32.160156 57.546875 39.738281 C 57.769531 43.5 56.59375 47.179688 54.238281 50.09375 C 52.066406 52.78125 50.871094 56.140625 50.871094 59.550781 L 50.871094 61.886719 C 50.871094 63.265625 49.75 64.386719 48.371094 64.386719 " fill-opacity="1" fill-rule="nonzero"/><path fill="#ffffff" d="M 49 66.84375 L 36.042969 66.84375 C 35.527344 66.84375 35.109375 66.429688 35.109375 65.914062 C 35.109375 65.402344 35.527344 64.984375 36.042969 64.984375 L 49 64.984375 C 49.511719 64.984375 49.929688 65.402344 49.929688 65.914062 C 49.929688 66.429688 49.511719 66.84375 49 66.84375 " fill-opacity="1" fill-rule="nonzero"/><path fill="#ffffff" d="M 49 69.328125 L 36.042969 69.328125 C 35.527344 69.328125 35.109375 68.910156 35.109375 68.398438 C 35.109375 67.882812 35.527344 67.464844 36.042969 67.464844 L 49 67.464844 C 49.511719 67.464844 49.929688 67.882812 49.929688 68.398438 C 49.929688 68.910156 49.511719 69.328125 49 69.328125 " fill-opacity="1" fill-rule="nonzero"/><path fill="#ffffff" d="M 49 71.808594 L 36.042969 71.808594 C 35.527344 71.808594 35.109375 71.394531 35.109375 70.878906 C 35.109375 70.367188 35.527344 69.949219 36.042969 69.949219 L 49 69.949219 C 49.511719 69.949219 49.929688 70.367188 49.929688 70.878906 C 49.929688 71.394531 49.511719 71.808594 49 71.808594 " fill-opacity="1" fill-rule="nonzero"/><g clip-path="url(#9765495f44)"><path fill="#ffffff" d="M 47.378906 74.960938 L 37.664062 74.960938 L 36.835938 72.566406 L 48.203125 72.566406 L 47.378906 74.960938 " fill-opacity="1" fill-rule="nonzero"/></g><g clip-path="url(#8aad337820)"><path fill="#ffffff" d="M 42.519531 21.570312 C 42.007812 21.570312 41.589844 21.152344 41.589844 20.640625 L 41.589844 11.007812 C 41.589844 10.496094 42.007812 10.078125 42.519531 10.078125 C 43.035156 10.078125 43.453125 10.496094 43.453125 11.007812 L 43.453125 20.640625 C 43.453125 21.152344 43.035156 21.570312 42.519531 21.570312 " fill-opacity="1" fill-rule="nonzero"/></g><path fill="#ffffff" d="M 57.648438 27.835938 C 57.410156 27.835938 57.171875 27.746094 56.992188 27.566406 C 56.628906 27.199219 56.628906 26.613281 56.992188 26.25 L 63.800781 19.4375 C 64.164062 19.074219 64.753906 19.074219 65.117188 19.4375 C 65.480469 19.800781 65.480469 20.390625 65.117188 20.753906 L 58.308594 27.566406 C 58.125 27.746094 57.886719 27.835938 57.648438 27.835938 " fill-opacity="1" fill-rule="nonzero"/><g clip-path="url(#ab77dd12b7)"><path fill="#ffffff" d="M 73.546875 42.964844 L 63.917969 42.964844 C 63.402344 42.964844 62.988281 42.550781 62.988281 42.035156 C 62.988281 41.523438 63.402344 41.105469 63.917969 41.105469 L 73.546875 41.105469 C 74.0625 41.105469 74.480469 41.523438 74.480469 42.035156 C 74.480469 42.550781 74.0625 42.964844 73.546875 42.964844 " fill-opacity="1" fill-rule="nonzero"/></g><path fill="#ffffff" d="M 64.460938 64.90625 C 64.222656 64.90625 63.984375 64.816406 63.800781 64.632812 L 56.992188 57.824219 C 56.628906 57.460938 56.628906 56.871094 56.992188 56.507812 C 57.355469 56.144531 57.945312 56.144531 58.308594 56.507812 L 65.117188 63.316406 C 65.480469 63.679688 65.480469 64.269531 65.117188 64.632812 C 64.9375 64.816406 64.699219 64.90625 64.460938 64.90625 " fill-opacity="1" fill-rule="nonzero"/><path fill="#ffffff" d="M 20.582031 64.90625 C 20.34375 64.90625 20.105469 64.816406 19.921875 64.632812 C 19.558594 64.269531 19.558594 63.679688 19.921875 63.316406 L 26.734375 56.507812 C 27.097656 56.144531 27.683594 56.144531 28.050781 56.507812 C 28.414062 56.871094 28.414062 57.460938 28.050781 57.824219 L 21.238281 64.632812 C 21.058594 64.816406 20.820312 64.90625 20.582031 64.90625 " fill-opacity="1" fill-rule="nonzero"/><g clip-path="url(#5b13f88147)"><path fill="#ffffff" d="M 21.125 42.964844 L 11.492188 42.964844 C 10.980469 42.964844 10.5625 42.550781 10.5625 42.035156 C 10.5625 41.523438 10.980469 41.105469 11.492188 41.105469 L 21.125 41.105469 C 21.636719 41.105469 22.054688 41.523438 22.054688 42.035156 C 22.054688 42.550781 21.636719 42.964844 21.125 42.964844 " fill-opacity="1" fill-rule="nonzero"/></g><path fill="#ffffff" d="M 27.390625 27.835938 C 27.152344 27.835938 26.914062 27.746094 26.734375 27.566406 L 19.921875 20.753906 C 19.558594 20.390625 19.558594 19.800781 19.921875 19.4375 C 20.285156 19.074219 20.875 19.074219 21.238281 19.4375 L 28.050781 26.25 C 28.414062 26.613281 28.414062 27.199219 28.050781 27.566406 C 27.867188 27.746094 27.628906 27.835938 27.390625 27.835938 " fill-opacity="1" fill-rule="nonzero"/></svg>