<svg xmlns="http://www.w3.org/2000/svg" xmlns:xlink="http://www.w3.org/1999/xlink" width="115" zoomAndPan="magnify" viewBox="0 0 86.25 86.249996" height="115" preserveAspectRatio="xMidYMid meet" version="1.0"><defs><clipPath id="fbeb6f1f02"><path d="M 0 0 L 85.507812 0 L 85.507812 85.507812 L 0 85.507812 Z M 0 0 " clip-rule="nonzero"/></clipPath><clipPath id="ebcfcf4dc5"><path d="M 0 0 L 85.050781 0 L 85.050781 85.050781 L 0 85.050781 Z M 0 0 " clip-rule="nonzero"/></clipPath><clipPath id="d5f34f6daa"><path d="M 22.304688 0 L 62.746094 0 C 75.0625 0 85.050781 9.988281 85.050781 22.304688 L 85.050781 62.746094 C 85.050781 75.0625 75.0625 85.050781 62.746094 85.050781 L 22.304688 85.050781 C 9.988281 85.050781 0 75.0625 0 62.746094 L 0 22.304688 C 0 9.988281 9.988281 0 22.304688 0 Z M 22.304688 0 " clip-rule="nonzero"/></clipPath><clipPath id="c3f7cd9757"><path d="M 0 0 L 85.050781 0 L 85.050781 85.050781 L 0 85.050781 Z M 0 0 " clip-rule="nonzero"/></clipPath><clipPath id="819488a2a3"><path d="M 22.304688 0 L 62.746094 0 C 75.0625 0 85.050781 9.988281 85.050781 22.304688 L 85.050781 62.746094 C 85.050781 75.0625 75.0625 85.050781 62.746094 85.050781 L 22.304688 85.050781 C 9.988281 85.050781 0 75.0625 0 62.746094 L 0 22.304688 C 0 9.988281 9.988281 0 22.304688 0 Z M 22.304688 0 " clip-rule="nonzero"/></clipPath><clipPath id="ab2347c6c6"><rect x="0" width="86" y="0" height="86"/></clipPath><clipPath id="f9dc63e5a4"><path d="M 17.011719 17.351562 L 67.941406 17.351562 L 67.941406 67.699219 L 17.011719 67.699219 Z M 17.011719 17.351562 " clip-rule="nonzero"/></clipPath><clipPath id="4801076a7d"><path d="M 44.972656 17.664062 L 45.78125 21.539062 C 47.339844 21.773438 48.871094 22.179688 50.34375 22.746094 L 53.003906 19.789062 C 54.496094 20.457031 55.914062 21.265625 57.246094 22.203125 L 55.980469 25.957031 C 57.214844 26.929688 58.332031 28.035156 59.320312 29.25 L 63.125 28.003906 C 64.078125 29.316406 64.898438 30.71875 65.574219 32.1875 L 62.578125 34.8125 C 63.152344 36.265625 63.558594 37.773438 63.800781 39.3125 L 67.726562 40.109375 C 67.882812 41.714844 67.882812 43.335938 67.726562 44.941406 L 63.800781 45.734375 C 63.558594 47.277344 63.152344 48.785156 62.578125 50.238281 L 65.574219 52.863281 C 64.898438 54.332031 64.078125 55.734375 63.125 57.046875 L 59.320312 55.800781 C 58.332031 57.015625 57.214844 58.121094 55.980469 59.09375 L 57.246094 62.847656 C 55.914062 63.785156 54.496094 64.59375 53.003906 65.261719 L 50.34375 62.304688 C 48.871094 62.871094 47.339844 63.277344 45.78125 63.511719 L 44.972656 67.386719 C 43.34375 67.542969 41.703125 67.542969 40.078125 67.386719 L 39.269531 63.511719 C 37.707031 63.277344 36.179688 62.871094 34.707031 62.304688 L 32.042969 65.261719 C 30.554688 64.59375 29.136719 63.785156 27.804688 62.847656 L 29.070312 59.09375 C 27.835938 58.121094 26.714844 57.015625 25.726562 55.800781 L 21.925781 57.046875 C 20.972656 55.734375 20.152344 54.332031 19.476562 52.863281 L 22.472656 50.238281 C 21.898438 48.785156 21.488281 47.277344 21.25 45.734375 L 17.324219 44.941406 C 17.164062 43.335938 17.164062 41.714844 17.324219 40.109375 L 21.25 39.3125 C 21.488281 37.773438 21.898438 36.265625 22.472656 34.8125 L 19.476562 32.1875 C 20.152344 30.71875 20.972656 29.316406 21.925781 28.003906 L 25.726562 29.25 C 26.714844 28.035156 27.835938 26.929688 29.070312 25.957031 L 27.804688 22.203125 C 29.136719 21.265625 30.554688 20.457031 32.042969 19.789062 L 34.707031 22.746094 C 36.179688 22.179688 37.707031 21.773438 39.269531 21.539062 L 40.078125 17.664062 C 41.703125 17.507812 43.34375 17.507812 44.972656 17.664062 Z M 42.523438 26.914062 C 33.792969 26.914062 26.703125 33.910156 26.703125 42.523438 C 26.703125 51.140625 33.792969 58.136719 42.523438 58.136719 C 51.257812 58.136719 58.347656 51.140625 58.347656 42.523438 C 58.347656 33.910156 51.257812 26.914062 42.523438 26.914062 Z M 42.523438 26.914062 " clip-rule="nonzero"/></clipPath><clipPath id="2732d84c50"><path d="M 0.132812 0.367188 L 50.941406 0.367188 L 50.941406 50.574219 L 0.132812 50.574219 Z M 0.132812 0.367188 " clip-rule="nonzero"/></clipPath><clipPath id="9b40cea34d"><path d="M 27.972656 0.664062 L 28.78125 4.539062 C 30.339844 4.773438 31.871094 5.179688 33.34375 5.746094 L 36.003906 2.789062 C 37.496094 3.457031 38.914062 4.265625 40.246094 5.203125 L 38.980469 8.957031 C 40.214844 9.929688 41.332031 11.035156 42.320312 12.25 L 46.125 11.003906 C 47.078125 12.316406 47.898438 13.71875 48.574219 15.1875 L 45.578125 17.8125 C 46.152344 19.265625 46.558594 20.773438 46.800781 22.3125 L 50.726562 23.109375 C 50.882812 24.714844 50.882812 26.335938 50.726562 27.941406 L 46.800781 28.734375 C 46.558594 30.277344 46.152344 31.785156 45.578125 33.238281 L 48.574219 35.863281 C 47.898438 37.332031 47.078125 38.734375 46.125 40.046875 L 42.320312 38.800781 C 41.332031 40.015625 40.214844 41.121094 38.980469 42.09375 L 40.246094 45.847656 C 38.914062 46.785156 37.496094 47.59375 36.003906 48.261719 L 33.34375 45.304688 C 31.871094 45.871094 30.339844 46.277344 28.78125 46.511719 L 27.972656 50.386719 C 26.34375 50.542969 24.703125 50.542969 23.078125 50.386719 L 22.269531 46.511719 C 20.707031 46.277344 19.179688 45.871094 17.707031 45.304688 L 15.042969 48.261719 C 13.554688 47.59375 12.136719 46.785156 10.804688 45.847656 L 12.070312 42.09375 C 10.835938 41.121094 9.714844 40.015625 8.726562 38.800781 L 4.925781 40.046875 C 3.972656 38.734375 3.152344 37.332031 2.476562 35.863281 L 5.472656 33.238281 C 4.898438 31.785156 4.488281 30.277344 4.25 28.734375 L 0.324219 27.941406 C 0.164062 26.335938 0.164062 24.714844 0.324219 23.109375 L 4.25 22.3125 C 4.488281 20.773438 4.898438 19.265625 5.472656 17.8125 L 2.476562 15.1875 C 3.152344 13.71875 3.972656 12.316406 4.925781 11.003906 L 8.726562 12.25 C 9.714844 11.035156 10.835938 9.929688 12.070312 8.957031 L 10.804688 5.203125 C 12.136719 4.265625 13.554688 3.457031 15.042969 2.789062 L 17.707031 5.746094 C 19.179688 5.179688 20.707031 4.773438 22.269531 4.539062 L 23.078125 0.664062 C 24.703125 0.507812 26.34375 0.507812 27.972656 0.664062 Z M 25.523438 9.914062 C 16.792969 9.914062 9.703125 16.910156 9.703125 25.523438 C 9.703125 34.140625 16.792969 41.136719 25.523438 41.136719 C 34.257812 41.136719 41.347656 34.140625 41.347656 25.523438 C 41.347656 16.910156 34.257812 9.914062 25.523438 9.914062 Z M 25.523438 9.914062 " clip-rule="nonzero"/></clipPath><clipPath id="8838383e08"><rect x="0" width="51" y="0" height="51"/></clipPath><clipPath id="9b1f5e22e1"><rect x="0" width="86" y="0" height="86"/></clipPath></defs><g clip-path="url(#fbeb6f1f02)"><g transform="matrix(1, 0, 0, 1, -0, -0.000000000000008663)"><g clip-path="url(#9b1f5e22e1)"><g clip-path="url(#ebcfcf4dc5)"><g clip-path="url(#d5f34f6daa)"><g transform="matrix(1, 0, 0, 1, -0, -0.000000000000008663)"><g clip-path="url(#ab2347c6c6)"><g clip-path="url(#c3f7cd9757)"><g clip-path="url(#819488a2a3)"><path fill="#000000" d="M 0 0 L 85.050781 0 L 85.050781 85.050781 L 0 85.050781 Z M 0 0 " fill-opacity="1" fill-rule="nonzero"/></g></g></g></g></g></g><g clip-path="url(#f9dc63e5a4)"><g clip-path="url(#4801076a7d)"><g transform="matrix(1, 0, 0, 1, 17, 17)"><g clip-path="url(#8838383e08)"><g clip-path="url(#2732d84c50)"><g clip-path="url(#9b40cea34d)"><path fill="#ffffff" d="M 0.207031 0.546875 L 50.941406 0.546875 L 50.941406 50.503906 L 0.207031 50.503906 Z M 0.207031 0.546875 " fill-opacity="1" fill-rule="nonzero"/></g></g></g></g></g></g></g></g></g></svg>