<svg xmlns="http://www.w3.org/2000/svg" xmlns:xlink="http://www.w3.org/1999/xlink" width="115" zoomAndPan="magnify" viewBox="0 0 86.25 86.249996" height="115" preserveAspectRatio="xMidYMid meet" version="1.0"><defs><clipPath id="aa9bf4f67c"><path d="M 0 0 L 85.050781 0 L 85.050781 85.050781 L 0 85.050781 Z M 0 0 " clip-rule="nonzero"/></clipPath><clipPath id="7a7a9afa12"><path d="M 22.304688 0 L 62.746094 0 C 75.0625 0 85.050781 9.988281 85.050781 22.304688 L 85.050781 62.746094 C 85.050781 75.0625 75.0625 85.050781 62.746094 85.050781 L 22.304688 85.050781 C 9.988281 85.050781 0 75.0625 0 62.746094 L 0 22.304688 C 0 9.988281 9.988281 0 22.304688 0 Z M 22.304688 0 " clip-rule="nonzero"/></clipPath><clipPath id="a8318511df"><path d="M 0 0 L 85.050781 0 L 85.050781 85.050781 L 0 85.050781 Z M 0 0 " clip-rule="nonzero"/></clipPath><clipPath id="be26ddeffd"><path d="M 22.304688 0 L 62.746094 0 C 75.0625 0 85.050781 9.988281 85.050781 22.304688 L 85.050781 62.746094 C 85.050781 75.0625 75.0625 85.050781 62.746094 85.050781 L 22.304688 85.050781 C 9.988281 85.050781 0 75.0625 0 62.746094 L 0 22.304688 C 0 9.988281 9.988281 0 22.304688 0 Z M 22.304688 0 " clip-rule="nonzero"/></clipPath><clipPath id="1109cfe353"><rect x="0" width="86" y="0" height="86"/></clipPath><clipPath id="3b0d540de7"><path d="M 13.355469 13.71875 L 71.351562 13.71875 L 71.351562 70.972656 L 13.355469 70.972656 Z M 13.355469 13.71875 " clip-rule="nonzero"/></clipPath></defs><g clip-path="url(#aa9bf4f67c)"><g clip-path="url(#7a7a9afa12)"><g transform="matrix(1, 0, 0, 1, -0, -0.000000000000008663)"><g clip-path="url(#1109cfe353)"><g clip-path="url(#a8318511df)"><g clip-path="url(#be26ddeffd)"><path fill="#000000" d="M 0 0 L 85.050781 0 L 85.050781 85.050781 L 0 85.050781 Z M 0 0 " fill-opacity="1" fill-rule="nonzero"/></g></g></g></g></g></g><g clip-path="url(#3b0d540de7)"><path fill="#ffffff" d="M 52.808594 65.417969 C 55.382812 66.355469 56.316406 68.683594 55.550781 71.304688 L 30.109375 71.320312 C 29.800781 71.320312 29.609375 71.242188 29.453125 71.191406 C 29.179688 71.101562 28.335938 66.511719 32.570312 65.269531 C 38.378906 63.570312 39.34375 57.175781 38.621094 51.882812 C 36.382812 50.507812 34.605469 48.894531 33.035156 46.757812 C 20.910156 43.195312 13.53125 32.589844 13.367188 20.066406 C 13.355469 18.9375 13.945312 18.199219 15.097656 18.191406 L 24.886719 18.152344 L 24.984375 13.71875 L 60.058594 13.71875 C 60.058594 13.71875 60.160156 18.085938 60.160156 18.085938 L 69.808594 18.148438 C 70.691406 18.15625 71.667969 18.78125 71.671875 19.804688 C 71.714844 26.449219 69.597656 32.875 65.417969 38.074219 C 62.078125 42.234375 57.609375 44.949219 52.589844 46.5625 C 51.917969 46.777344 51.5625 47.308594 51.148438 47.804688 C 49.8125 49.421875 48.394531 50.785156 46.496094 51.839844 C 45.875 56.164062 46.25 60.871094 49.722656 63.851562 C 50.621094 64.625 51.722656 65.023438 52.808594 65.417969 Z M 25.125 21.800781 L 17.011719 21.820312 C 17.519531 29.605469 22.28125 38.234375 29.789062 41.488281 C 26.816406 34.589844 25.851562 29.082031 25.125 21.800781 Z M 68 21.785156 L 59.871094 21.894531 C 59.394531 29.328125 57.941406 34.699219 55.421875 41.457031 C 62.949219 38.078125 67.777344 29.171875 68 21.785156 Z M 68 21.785156 " fill-opacity="1" fill-rule="nonzero"/></g></svg>